<svg xmlns="http://www.w3.org/2000/svg" viewBox="0 0 260 260" height="100%"><rect width="260" height="260" rx="130" fill="#5e61e5"></rect><path d="M161.45 165.906v15.815h8.801c5.074 0 8.506-3.133 8.506-7.908s-3.432-7.907-8.506-7.907Z" fill="#fff"></path><path d="m222.269 38.43-30.938 89.435a3.064 3.064 0 0 1-2.685 2.088H155.82a3.069 3.069 0 0 1-2.686-2.088L118.966 29.09a1.495 1.495 0 0 1 1.493-2.09h33.273a3.097 3.097 0 0 1 2.834 2.09l15.666 61.324L187.9 29.09a3.098 3.098 0 0 1 2.835-2.09h18.577A129.426 129.426 0 0 0 130 0a129.426 129.426 0 0 0-79.312 27h29.649c20.74 0 34.616 11.639 34.616 29.096 0 10.594-4.924 18.353-12.982 20.889 9.849 2.238 16.114 11.339 16.114 23.872 0 17.459-12.98 29.096-32.376 29.096H37.665a2.135 2.135 0 0 1-2.09-2.088V40.654A129.548 129.548 0 0 0 0 130a129.872 129.872 0 0 0 58.242 108.408v-72.502H36.458a2.135 2.135 0 0 1-2.089-2.09v-22.53a2.274 2.274 0 0 1 2.089-2.239h74.305a1.95 1.95 0 0 1 2.088 2.09l-2.237 22.679a2.535 2.535 0 0 1-2.387 2.09H88.978v74.006A2.133 2.133 0 0 1 86.89 242H63.978A129.384 129.384 0 0 0 130 260a129.384 129.384 0 0 0 66.022-18H183.83a3.91 3.91 0 0 1-3.431-2.387l-13.13-30.438c-1.344-3.284-3.581-4.924-5.82-4.626v35.363a2.313 2.313 0 0 1-2.387 2.088h-26.26a2.273 2.273 0 0 1-2.239-2.088v-98.627a2.295 2.295 0 0 1 2.239-2.238h39.39c22.977 0 38.197 13.43 38.197 33.721a30.782 30.782 0 0 1-16.711 27.753l17.513 31.003A129.751 129.751 0 0 0 260 130a129.582 129.582 0 0 0-37.731-91.57Z" fill="#fff"></path><path d="M66.313 104.14H77.65c5.223 0 8.804-3.283 8.804-8.057s-3.58-8.056-8.804-8.056H66.312ZM83.023 60.573c0-4.626-3.283-7.76-8.207-7.76h-8.504v15.518h8.504c4.924 0 8.207-3.134 8.207-7.758Z" fill="#fff"></path></svg>